<svg aria-hidden="true" style="width:0;height:0;position:absolute;overflow:hidden" xmlns="http://www.w3.org/2000/svg"><defs><symbol id="icon-play" viewBox="0 0 32 32"><path d="M30.662 5.003C26.174 4.358 21.214 4 16 4S5.826 4.358 1.338 5.003C.478 8.369 0 12.089 0 16s.477 7.63 1.338 10.997C5.827 27.642 10.786 28 16 28s10.174-.358 14.662-1.003C31.522 23.631 32 19.911 32 16s-.477-7.63-1.338-10.997zM12 22V10l10 6-10 6z"/></symbol><symbol id="icon-close" viewBox="0 0 32 32"><path d="m26.667 7.303-1.97-1.97-7.808 7.808-7.808-7.808-1.97 1.97 7.808 7.808-7.808 7.808 1.97 1.97 7.808-7.808 7.808 7.808 1.97-1.97-7.808-7.808 7.808-7.808z"/><symbol id="icon-film" viewBox="0 0 32 32"><path fill="none" stroke="#fff" style="stroke:var(--color1,#fff)" stroke-linejoin="round" stroke-linecap="round" stroke-width="2.667" d="M26.427 2.667H5.574a2.907 2.907 0 0 0-2.907 2.907v20.853a2.907 2.907 0 0 0 2.907 2.907v0h20.853a2.907 2.907 0 0 0 2.907-2.907v0V5.574a2.907 2.907 0 0 0-2.907-2.907v0zm-17.094 0v26.667M22.667 2.667v26.667M2.667 16h26.667M2.667 9.333h6.667M2.667 22.667h6.667m13.333 0h6.667M22.667 9.333h6.667"/></symbol><symbol id="icon-search" viewBox="0 0 32 32"><path fill="none" stroke="#fff" style="stroke:var(--color1,#fff)" stroke-linejoin="round" stroke-linecap="round" stroke-width="2.667" d="M14.667 25.333c5.891 0 10.667-4.776 10.667-10.667S20.558 3.999 14.667 3.999v0C8.776 3.999 4 8.775 4 14.666s4.776 10.667 10.667 10.667v0zM28 28l-5.8-5.8"/></symbol><symbol id="icon-arrow-left" viewBox="0 0 32 32"><path stroke-linejoin="round" stroke-linecap="round" stroke-width="2.667" d="M25.333 16H6.666M16 25.334l-9.333-9.333L16 6.668"/></symbol><symbol id="icon-arrow-right" viewBox="0 0 32 32"><path stroke-linejoin="round" stroke-linecap="round" stroke-width="2.667" d="M6.667 16h18.667M16 25.334l9.333-9.333L16 6.668"/></symbol><symbol id="icon-footer-heard" viewBox="0 0 32 32"><path fill="#ff6b08" style="fill:var(--color1,#ff6b08)" d="m16 30.144-2.24-2.217C5.44 20.64 0 15.726 0 9.71 0 4.793 3.84.995 8.8.995c2.72.002 5.44 1.269 7.2 3.326A9.64 9.64 0 0 1 23.195.998h.005c4.96 0 8.8 3.801 8.8 8.711 0 6.021-5.44 10.933-13.76 18.217L16 30.145z"/></symbol><symbol id="icon-arrow-up" viewBox="0 0 32 32"><path d="M32 16c0 4.417-1.791 8.418-4.687 11.313S20.417 32 16 32c-4.418 0-8.418-1.791-11.313-4.687S0 20.417 0 16c0-4.418 1.791-8.418 4.687-11.313S11.583 0 16 0c4.417 0 8.418 1.791 11.313 4.687S32 11.583 32 16zm-12.768 1.326v4.19a.862.862 0 0 1-.858.858h-4.747a.86.86 0 0 1-.857-.858v-4.189h-2.678c-1.031 0-1.549-1.227-.866-1.971l5.921-6.911a1.176 1.176 0 0 1 1.791-.023l5.857 6.957c.668.766.102 1.946-.887 1.947h-2.676zm6.595 8.501c2.514-2.515 4.069-5.99 4.069-9.827s-1.556-7.313-4.069-9.827C23.312 3.659 19.837 2.104 16 2.104S8.687 3.659 6.173 6.173 2.104 12.162 2.104 16c0 3.837 1.555 7.312 4.069 9.827 2.514 2.514 5.989 4.069 9.827 4.069s7.312-1.556 9.827-4.069z"/></symbol><symbol id="icon-Spinner" viewBox="0 0 32 32"><path fill="#0a0a0a" style="fill:var(--color1,#0a0a0a)" opacity=".083" d="M16 7.68c.53 0 .96.86.96 1.92s-.43 1.92-.96 1.92-.96-.86-.96-1.92.43-1.92.96-1.92z"/><path fill="#0a0a0a" style="fill:var(--color1,#0a0a0a)" opacity=".167" d="M20.16 8.795c.459.265.402 1.224-.129 2.143s-1.332 1.448-1.791 1.183c-.459-.265-.402-1.224.129-2.143s1.332-1.448 1.791-1.183z"/><path fill="#0a0a0a" style="fill:var(--color1,#0a0a0a)" opacity=".25" d="M23.205 11.84c.265.459-.264 1.261-1.183 1.791s-1.878.588-2.143.129c-.265-.459.264-1.261 1.183-1.791s1.878-.588 2.143-.129z"/><path fill="#0a0a0a" style="fill:var(--color1,#0a0a0a)" opacity=".333" d="M24.32 16c0 .53-.86.96-1.92.96s-1.92-.43-1.92-.96.86-.96 1.92-.96 1.92.43 1.92.96z"/><path fill="#0a0a0a" style="fill:var(--color1,#0a0a0a)" opacity=".417" d="M23.205 20.16c-.265.459-1.224.402-2.143-.129s-1.448-1.332-1.183-1.791c.265-.459 1.224-.402 2.143.129s1.448 1.332 1.183 1.791z"/><path fill="#0a0a0a" style="fill:var(--color1,#0a0a0a)" opacity=".5" d="M20.16 23.205c-.459.265-1.261-.264-1.791-1.183s-.588-1.878-.129-2.143c.459-.265 1.261.264 1.791 1.183s.588 1.878.129 2.143z"/><path fill="#0a0a0a" style="fill:var(--color1,#0a0a0a)" opacity=".583" d="M16 24.32c-.53 0-.96-.86-.96-1.92s.43-1.92.96-1.92.96.86.96 1.92-.43 1.92-.96 1.92z"/><path fill="#0a0a0a" style="fill:var(--color1,#0a0a0a)" opacity=".667" d="M11.84 23.205c-.459-.265-.402-1.224.129-2.143s1.332-1.448 1.791-1.183c.459.265.402 1.224-.129 2.143s-1.332 1.448-1.791 1.183z"/><path fill="#0a0a0a" style="fill:var(--color1,#0a0a0a)" opacity=".75" d="M8.795 20.16c-.265-.459.264-1.261 1.183-1.791s1.878-.588 2.143-.129c.265.459-.264 1.261-1.183 1.791s-1.878.588-2.143.129z"/><path fill="#0a0a0a" style="fill:var(--color1,#0a0a0a)" opacity=".833" d="M7.68 16c0-.53.86-.96 1.92-.96s1.92.43 1.92.96-.86.96-1.92.96-1.92-.43-1.92-.96z"/><path fill="#0a0a0a" style="fill:var(--color1,#0a0a0a)" opacity=".917" d="M8.795 11.84c.265-.459 1.224-.402 2.143.129s1.448 1.332 1.183 1.791c-.265.459-1.224.402-2.143-.129S8.53 12.299 8.795 11.84z"/><path fill="#0a0a0a" style="fill:var(--color1,#0a0a0a)" d="M11.84 8.795c.459-.265 1.261.264 1.791 1.183s.588 1.878.129 2.143c-.459.265-1.261-.264-1.791-1.183s-.588-1.878-.129-2.143z"/></symbol><symbol id="icon-telegram" viewBox="0 0 30 30"><path d="M16 0C7.162 0 0 7.162 0 16s7.162 16 16 16 16-7.163 16-16S24.837 0 16 0zm7.863 10.969-2.625 12.369c-.181.881-.712 1.087-1.45.681l-4-2.956-1.919 1.869c-.225.219-.4.4-.8.4-.519 0-.431-.194-.606-.688L11.1 18.169l-3.956-1.231c-.856-.262-.862-.85.194-1.269l15.412-5.95c.7-.319 1.381.169 1.113 1.25z"/></symbol><symbol id="icon-github" viewBox="0 0 30 30"><path d="M16 .395c-8.836 0-16 7.163-16 16 0 7.069 4.585 13.067 10.942 15.182.8.148 1.094-.347 1.094-.77 0-.381-.015-1.642-.022-2.979-4.452.968-5.391-1.888-5.391-1.888-.728-1.849-1.776-2.341-1.776-2.341-1.452-.993.11-.973.11-.973 1.606.113 2.452 1.649 2.452 1.649 1.427 2.446 3.743 1.739 4.656 1.33.143-1.034.558-1.74 1.016-2.14-3.554-.404-7.29-1.777-7.29-7.907 0-1.747.625-3.174 1.649-4.295-.166-.403-.714-2.03.155-4.234 0 0 1.344-.43 4.401 1.64a15.353 15.353 0 0 1 4.005-.539c1.359.006 2.729.184 4.008.539 3.054-2.07 4.395-1.64 4.395-1.64.871 2.204.323 3.831.157 4.234 1.026 1.12 1.647 2.548 1.647 4.295 0 6.145-3.743 7.498-7.306 7.895.574.497 1.085 1.47 1.085 2.963 0 2.141-.019 3.864-.019 4.391 0 .426.288.925 1.099.768C27.421 29.457 32 23.462 32 16.395c0-8.837-7.164-16-16-16z"/></symbol></symbol></defs></svg>