<svg aria-hidden="true" style="width:0;height:0;position:absolute;overflow:hidden" xmlns="http://www.w3.org/2000/svg"><defs><symbol id="icon-close" viewBox="0 0 32 32"><path d="m26.667 7.303-1.97-1.97-7.808 7.808-7.808-7.808-1.97 1.97 7.808 7.808-7.808 7.808 1.97 1.97 7.808-7.808 7.808 7.808 1.97-1.97-7.808-7.808 7.808-7.808z"/><symbol id="icon-film" viewBox="0 0 32 32"><path fill="none" stroke="#fff" style="stroke:var(--color1,#fff)" stroke-linejoin="round" stroke-linecap="round" stroke-width="2.667" d="M26.427 2.667H5.574a2.907 2.907 0 0 0-2.907 2.907v20.853a2.907 2.907 0 0 0 2.907 2.907v0h20.853a2.907 2.907 0 0 0 2.907-2.907v0V5.574a2.907 2.907 0 0 0-2.907-2.907v0zm-17.094 0v26.667M22.667 2.667v26.667M2.667 16h26.667M2.667 9.333h6.667M2.667 22.667h6.667m13.333 0h6.667M22.667 9.333h6.667"/></symbol><symbol id="icon-search" viewBox="0 0 32 32"><path fill="none" stroke="#fff" style="stroke:var(--color1,#fff)" stroke-linejoin="round" stroke-linecap="round" stroke-width="2.667" d="M14.667 25.333c5.891 0 10.667-4.776 10.667-10.667S20.558 3.999 14.667 3.999v0C8.776 3.999 4 8.775 4 14.666s4.776 10.667 10.667 10.667v0zM28 28l-5.8-5.8"/></symbol><symbol id="icon-arrow-left" viewBox="0 0 32 32"><path stroke-linejoin="round" stroke-linecap="round" stroke-width="2.667" d="M25.333 16H6.666M16 25.334l-9.333-9.333L16 6.668"/></symbol><symbol id="icon-arrow-right" viewBox="0 0 32 32"><path stroke-linejoin="round" stroke-linecap="round" stroke-width="2.667" d="M6.667 16h18.667M16 25.334l9.333-9.333L16 6.668"/></symbol><symbol id="icon-footer-heard" viewBox="0 0 32 32"><path fill="#ff6b08" style="fill:var(--color1,#ff6b08)" d="m16 30.144-2.24-2.217C5.44 20.64 0 15.726 0 9.71 0 4.793 3.84.995 8.8.995c2.72.002 5.44 1.269 7.2 3.326A9.64 9.64 0 0 1 23.195.998h.005c4.96 0 8.8 3.801 8.8 8.711 0 6.021-5.44 10.933-13.76 18.217L16 30.145z"/></symbol><symbol id="icon-arrow-up" viewBox="0 0 32 32"><path fill="red" style="fill:var(--color1,red)" d="M32 16c0 4.417-1.791 8.418-4.687 11.313S20.417 32 16 32c-4.418 0-8.418-1.791-11.313-4.687S0 20.417 0 16c0-4.418 1.791-8.418 4.687-11.313S11.583 0 16 0c4.417 0 8.418 1.791 11.313 4.687S32 11.583 32 16zm-12.768 1.326v4.19a.862.862 0 0 1-.858.858h-4.747a.86.86 0 0 1-.857-.858v-4.189h-2.678c-1.031 0-1.549-1.227-.866-1.971l5.921-6.911a1.176 1.176 0 0 1 1.791-.023l5.857 6.957c.668.766.102 1.946-.887 1.947h-2.676zm6.595 8.501c2.514-2.515 4.069-5.99 4.069-9.827s-1.556-7.313-4.069-9.827C23.312 3.659 19.837 2.104 16 2.104S8.687 3.659 6.173 6.173 2.104 12.162 2.104 16c0 3.837 1.555 7.312 4.069 9.827 2.514 2.514 5.989 4.069 9.827 4.069s7.312-1.556 9.827-4.069z"/></symbol></symbol></defs></svg>