<svg xmlns="http://www.w3.org/2000/svg"  clip-rule="evenodd" image-rendering="optimizeQuality" shape-rendering="geometricPrecision" text-rendering="geometricPrecision" viewBox="0 0 512 512"><path fill='#FF6B02' d="M512 256c0 70.67-28.66 134.68-74.99 181.01C390.68 483.34 326.67 512 256 512c-70.68 0-134.69-28.66-181.01-74.99C28.66 390.68 0 326.67 0 256c0-70.68 28.66-134.69 74.99-181.01C121.31 28.66 185.32 0 256 0c70.67 0 134.68 28.66 181.01 74.99C483.34 121.31 512 185.32 512 256zm-204.29 21.21v67.04c0 7.54-6.19 13.72-13.73 13.72h-75.96c-7.53 0-13.72-6.17-13.72-13.72v-67.03h-42.84c-16.5 0-24.78-19.63-13.86-31.54l94.74-110.57c7.44-9 21.03-9 28.66-.36l93.71 111.31c10.69 12.26 1.64 31.14-14.19 31.15h-42.81zm105.52 136.02c40.22-40.24 65.11-95.84 65.11-157.23 0-61.4-24.89-117-65.11-157.23C372.99 58.54 317.39 33.66 256 33.66c-61.4 0-117 24.88-157.23 65.11C58.54 139 33.66 194.6 33.66 256c0 61.39 24.88 116.99 65.11 157.23C139 453.45 194.6 478.34 256 478.34c61.39 0 116.99-24.89 157.23-65.11z"/></svg>