<svg aria-hidden="true" style="position: absolute; width: 0; height: 0; overflow: hidden;" version="1.1" xmlns="http://www.w3.org/2000/svg" xmlns:xlink="http://www.w3.org/1999/xlink">
<defs>
<symbol id="icon-play" viewBox="0 0 32 32">
<path d="M30.662 5.003c-4.488-0.645-9.448-1.003-14.662-1.003s-10.174 0.358-14.662 1.003c-0.86 3.366-1.338 7.086-1.338 10.997s0.477 7.63 1.338 10.997c4.489 0.645 9.448 1.003 14.662 1.003s10.174-0.358 14.662-1.003c0.86-3.366 1.338-7.086 1.338-10.997s-0.477-7.63-1.338-10.997zM12 22v-12l10 6-10 6z"></path>
</symbol>
<symbol id="icon-close" viewBox="0 0 32 32">
<path d="M26.667 7.303l-1.97-1.97-7.808 7.808-7.808-7.808-1.97 1.97 7.808 7.808-7.808 7.808 1.97 1.97 7.808-7.808 7.808 7.808 1.97-1.97-7.808-7.808 7.808-7.808z"></path>
<symbol id="icon-film" viewBox="0 0 32 32">
<path fill="none" stroke="#fff" style="stroke: var(--color1, #fff)" stroke-linejoin="round" stroke-linecap="round" stroke-miterlimit="4" stroke-width="2.6667" d="M26.427 2.667h-20.853c-1.605 0-2.907 1.301-2.907 2.907v0 20.853c0 1.605 1.301 2.907 2.907 2.907v0h20.853c1.605 0 2.907-1.301 2.907-2.907v0-20.853c0-1.605-1.301-2.907-2.907-2.907v0zM9.333 2.667v26.667M22.667 2.667v26.667M2.667 16h26.667M2.667 9.333h6.667M2.667 22.667h6.667M22.667 22.667h6.667M22.667 9.333h6.667"></path>
</symbol>
<symbol id="icon-search" viewBox="0 0 32 32">
<path fill="none" stroke="#fff" style="stroke: var(--color1, #fff)" stroke-linejoin="round" stroke-linecap="round" stroke-miterlimit="4" stroke-width="2.6667" d="M14.667 25.333c5.891 0 10.667-4.776 10.667-10.667s-4.776-10.667-10.667-10.667v0c-5.891 0-10.667 4.776-10.667 10.667s4.776 10.667 10.667 10.667v0zM28 28l-5.8-5.8"></path>
</symbol>
<!-- <symbol id="icon-arrow-left" viewBox="0 0 32 32">
<path stroke-linejoin="round" stroke-linecap="round" stroke-miterlimit="4" stroke-width="2.6667" d="M25.333 16h-18.667"></path>
<path stroke-linejoin="round" stroke-linecap="round" stroke-miterlimit="4" stroke-width="2.6667" d="M16 25.334l-9.333-9.333 9.333-9.333"></path>
</symbol> -->
<symbol id="icon-arrow-left" viewBox="0 0 32 32">
<path stroke-linejoin="round" stroke-linecap="round" stroke-miterlimit="4" stroke-width="2.6667" d="M25.333 16h-18.667"></path>
<path stroke-linejoin="round" stroke-linecap="round" stroke-miterlimit="4" stroke-width="2.6667" d="M16 25.334l-9.333-9.333 9.333-9.333"></path>
</symbol>
<symbol id="icon-arrow-right" viewBox="0 0 32 32">
<path stroke-linejoin="round" stroke-linecap="round" stroke-miterlimit="4" stroke-width="2.6667" d="M6.667 16h18.667"></path>
<path stroke-linejoin="round" stroke-linecap="round" stroke-miterlimit="4" stroke-width="2.6667" d="M16 25.334l9.333-9.333-9.333-9.333"></path>
</symbol>
<symbol id="icon-footer-heard" viewBox="0 0 32 32">
<path fill="#ff6b08" style="fill: var(--color1, #ff6b08)" d="M16 30.144l-2.24-2.217c-8.32-7.287-13.76-12.201-13.76-18.217 0-4.917 3.84-8.715 8.8-8.715 2.72 0.002 5.44 1.269 7.2 3.326 1.761-2.019 4.329-3.296 7.195-3.323l0.005-0c4.96 0 8.8 3.801 8.8 8.711 0 6.021-5.44 10.933-13.76 18.217l-2.24 2.219z"></path>
</symbol>
<symbol id="icon-arrow-up" viewBox="0 0 32 32">
<path   d="M32 16c0 4.417-1.791 8.418-4.687 11.313s-6.896 4.687-11.313 4.687c-4.418 0-8.418-1.791-11.313-4.687s-4.687-6.896-4.687-11.313c0-4.418 1.791-8.418 4.687-11.313s6.896-4.687 11.313-4.687c4.417 0 8.418 1.791 11.313 4.687s4.687 6.896 4.687 11.313zM19.232 17.326v4.19c0 0.471-0.387 0.858-0.858 0.858h-4.747c-0.471 0-0.857-0.386-0.857-0.858v-4.189h-2.678c-1.031 0-1.549-1.227-0.866-1.971l5.921-6.911c0.465-0.563 1.314-0.563 1.791-0.023l5.857 6.957c0.668 0.766 0.102 1.946-0.887 1.947h-2.676zM25.827 25.827c2.514-2.515 4.069-5.99 4.069-9.827s-1.556-7.313-4.069-9.827c-2.515-2.514-5.99-4.069-9.827-4.069s-7.313 1.555-9.827 4.069-4.069 5.989-4.069 9.827c0 3.837 1.555 7.312 4.069 9.827 2.514 2.514 5.989 4.069 9.827 4.069s7.312-1.556 9.827-4.069z"></path>
</symbol>
<symbol id="icon-Spinner" viewBox="0 0 32 32">
<path fill="#0a0a0a" style="fill: var(--color1, #0a0a0a)" opacity="0.083334" d="M16 7.68c0.53 0 0.96 0.86 0.96 1.92s-0.43 1.92-0.96 1.92c-0.53 0-0.96-0.86-0.96-1.92s0.43-1.92 0.96-1.92z"></path>
<path fill="#0a0a0a" style="fill: var(--color1, #0a0a0a)" opacity="0.166667" d="M20.16 8.795c0.459 0.265 0.402 1.224-0.129 2.143s-1.332 1.448-1.791 1.183c-0.459-0.265-0.402-1.224 0.129-2.143s1.332-1.448 1.791-1.183z"></path>
<path fill="#0a0a0a" style="fill: var(--color1, #0a0a0a)" opacity="0.25" d="M23.205 11.84c0.265 0.459-0.264 1.261-1.183 1.791s-1.878 0.588-2.143 0.129c-0.265-0.459 0.264-1.261 1.183-1.791s1.878-0.588 2.143-0.129z"></path>
<path fill="#0a0a0a" style="fill: var(--color1, #0a0a0a)" opacity="0.333334" d="M24.32 16c0 0.53-0.86 0.96-1.92 0.96s-1.92-0.43-1.92-0.96c0-0.53 0.86-0.96 1.92-0.96s1.92 0.43 1.92 0.96z"></path>
<path fill="#0a0a0a" style="fill: var(--color1, #0a0a0a)" opacity="0.416667" d="M23.205 20.16c-0.265 0.459-1.224 0.402-2.143-0.129s-1.448-1.332-1.183-1.791c0.265-0.459 1.224-0.402 2.143 0.129s1.448 1.332 1.183 1.791z"></path>
<path fill="#0a0a0a" style="fill: var(--color1, #0a0a0a)" opacity="0.5" d="M20.16 23.205c-0.459 0.265-1.261-0.264-1.791-1.183s-0.588-1.878-0.129-2.143c0.459-0.265 1.261 0.264 1.791 1.183s0.588 1.878 0.129 2.143z"></path>
<path fill="#0a0a0a" style="fill: var(--color1, #0a0a0a)" opacity="0.583334" d="M16 24.32c-0.53 0-0.96-0.86-0.96-1.92s0.43-1.92 0.96-1.92c0.53 0 0.96 0.86 0.96 1.92s-0.43 1.92-0.96 1.92z"></path>
<path fill="#0a0a0a" style="fill: var(--color1, #0a0a0a)" opacity="0.666667" d="M11.84 23.205c-0.459-0.265-0.402-1.224 0.129-2.143s1.332-1.448 1.791-1.183c0.459 0.265 0.402 1.224-0.129 2.143s-1.332 1.448-1.791 1.183z"></path>
<path fill="#0a0a0a" style="fill: var(--color1, #0a0a0a)" opacity="0.75" d="M8.795 20.16c-0.265-0.459 0.264-1.261 1.183-1.791s1.878-0.588 2.143-0.129c0.265 0.459-0.264 1.261-1.183 1.791s-1.878 0.588-2.143 0.129z"></path>
<path fill="#0a0a0a" style="fill: var(--color1, #0a0a0a)" opacity="0.833334" d="M7.68 16c0-0.53 0.86-0.96 1.92-0.96s1.92 0.43 1.92 0.96c0 0.53-0.86 0.96-1.92 0.96s-1.92-0.43-1.92-0.96z"></path>
<path fill="#0a0a0a" style="fill: var(--color1, #0a0a0a)" opacity="0.916667" d="M8.795 11.84c0.265-0.459 1.224-0.402 2.143 0.129s1.448 1.332 1.183 1.791c-0.265 0.459-1.224 0.402-2.143-0.129s-1.448-1.332-1.183-1.791z"></path>
<path fill="#0a0a0a" style="fill: var(--color1, #0a0a0a)" d="M11.84 8.795c0.459-0.265 1.261 0.264 1.791 1.183s0.588 1.878 0.129 2.143c-0.459 0.265-1.261-0.264-1.791-1.183s-0.588-1.878-0.129-2.143z"></path>

</symbol>
<symbol id="icon-telegram" viewBox="0 0 30 30">
<path d="M16 0c-8.838 0-16 7.162-16 16s7.162 16 16 16 16-7.163 16-16-7.163-16-16-16zM23.863 10.969l-2.625 12.369c-0.181 0.881-0.712 1.087-1.45 0.681l-4-2.956-1.919 1.869c-0.225 0.219-0.4 0.4-0.8 0.4-0.519 0-0.431-0.194-0.606-0.688l-1.363-4.475-3.956-1.231c-0.856-0.262-0.862-0.85 0.194-1.269l15.412-5.95c0.7-0.319 1.381 0.169 1.113 1.25z"></path>
</symbol>
<symbol id="icon-github" viewBox="0 0 30 30">
<path d="M16 0.395c-8.836 0-16 7.163-16 16 0 7.069 4.585 13.067 10.942 15.182 0.8 0.148 1.094-0.347 1.094-0.77 0-0.381-0.015-1.642-0.022-2.979-4.452 0.968-5.391-1.888-5.391-1.888-0.728-1.849-1.776-2.341-1.776-2.341-1.452-0.993 0.11-0.973 0.11-0.973 1.606 0.113 2.452 1.649 2.452 1.649 1.427 2.446 3.743 1.739 4.656 1.33 0.143-1.034 0.558-1.74 1.016-2.14-3.554-0.404-7.29-1.777-7.29-7.907 0-1.747 0.625-3.174 1.649-4.295-0.166-0.403-0.714-2.030 0.155-4.234 0 0 1.344-0.43 4.401 1.64 1.276-0.355 2.645-0.532 4.005-0.539 1.359 0.006 2.729 0.184 4.008 0.539 3.054-2.070 4.395-1.64 4.395-1.64 0.871 2.204 0.323 3.831 0.157 4.234 1.026 1.12 1.647 2.548 1.647 4.295 0 6.145-3.743 7.498-7.306 7.895 0.574 0.497 1.085 1.47 1.085 2.963 0 2.141-0.019 3.864-0.019 4.391 0 0.426 0.288 0.925 1.099 0.768 6.354-2.118 10.933-8.113 10.933-15.18 0-8.837-7.164-16-16-16z"></path>
</symbol>
</defs>
</svg>
