<svg aria-hidden="true" style="position: absolute; width: 0; height: 0; overflow: hidden;" version="1.1" xmlns="http://www.w3.org/2000/svg" xmlns:xlink="http://www.w3.org/1999/xlink">
<defs>
<symbol id="icon-close" viewBox="0 0 32 32">
<path d="M26.667 7.303l-1.97-1.97-7.808 7.808-7.808-7.808-1.97 1.97 7.808 7.808-7.808 7.808 1.97 1.97 7.808-7.808 7.808 7.808 1.97-1.97-7.808-7.808 7.808-7.808z"></path>
<symbol id="icon-film" viewBox="0 0 32 32">
<path fill="none" stroke="#fff" style="stroke: var(--color1, #fff)" stroke-linejoin="round" stroke-linecap="round" stroke-miterlimit="4" stroke-width="2.6667" d="M26.427 2.667h-20.853c-1.605 0-2.907 1.301-2.907 2.907v0 20.853c0 1.605 1.301 2.907 2.907 2.907v0h20.853c1.605 0 2.907-1.301 2.907-2.907v0-20.853c0-1.605-1.301-2.907-2.907-2.907v0zM9.333 2.667v26.667M22.667 2.667v26.667M2.667 16h26.667M2.667 9.333h6.667M2.667 22.667h6.667M22.667 22.667h6.667M22.667 9.333h6.667"></path>
</symbol>
<symbol id="icon-search" viewBox="0 0 32 32">
<path fill="none" stroke="#fff" style="stroke: var(--color1, #fff)" stroke-linejoin="round" stroke-linecap="round" stroke-miterlimit="4" stroke-width="2.6667" d="M14.667 25.333c5.891 0 10.667-4.776 10.667-10.667s-4.776-10.667-10.667-10.667v0c-5.891 0-10.667 4.776-10.667 10.667s4.776 10.667 10.667 10.667v0zM28 28l-5.8-5.8"></path>
</symbol>
<!-- <symbol id="icon-arrow-left" viewBox="0 0 32 32">
<path stroke-linejoin="round" stroke-linecap="round" stroke-miterlimit="4" stroke-width="2.6667" d="M25.333 16h-18.667"></path>
<path stroke-linejoin="round" stroke-linecap="round" stroke-miterlimit="4" stroke-width="2.6667" d="M16 25.334l-9.333-9.333 9.333-9.333"></path>
</symbol> -->
<symbol id="icon-arrow-left" viewBox="0 0 32 32">
<path stroke-linejoin="round" stroke-linecap="round" stroke-miterlimit="4" stroke-width="2.6667" d="M25.333 16h-18.667"></path>
<path stroke-linejoin="round" stroke-linecap="round" stroke-miterlimit="4" stroke-width="2.6667" d="M16 25.334l-9.333-9.333 9.333-9.333"></path>
</symbol>
<symbol id="icon-arrow-right" viewBox="0 0 32 32">
<path stroke-linejoin="round" stroke-linecap="round" stroke-miterlimit="4" stroke-width="2.6667" d="M6.667 16h18.667"></path>
<path stroke-linejoin="round" stroke-linecap="round" stroke-miterlimit="4" stroke-width="2.6667" d="M16 25.334l9.333-9.333-9.333-9.333"></path>
</symbol>
<symbol id="icon-footer-heard" viewBox="0 0 32 32">
<path fill="#ff6b08" style="fill: var(--color1, #ff6b08)" d="M16 30.144l-2.24-2.217c-8.32-7.287-13.76-12.201-13.76-18.217 0-4.917 3.84-8.715 8.8-8.715 2.72 0.002 5.44 1.269 7.2 3.326 1.761-2.019 4.329-3.296 7.195-3.323l0.005-0c4.96 0 8.8 3.801 8.8 8.711 0 6.021-5.44 10.933-13.76 18.217l-2.24 2.219z"></path>
</symbol>
<symbol id="icon-arrow-up" viewBox="0 0 32 32">
<path   d="M32 16c0 4.417-1.791 8.418-4.687 11.313s-6.896 4.687-11.313 4.687c-4.418 0-8.418-1.791-11.313-4.687s-4.687-6.896-4.687-11.313c0-4.418 1.791-8.418 4.687-11.313s6.896-4.687 11.313-4.687c4.417 0 8.418 1.791 11.313 4.687s4.687 6.896 4.687 11.313zM19.232 17.326v4.19c0 0.471-0.387 0.858-0.858 0.858h-4.747c-0.471 0-0.857-0.386-0.857-0.858v-4.189h-2.678c-1.031 0-1.549-1.227-0.866-1.971l5.921-6.911c0.465-0.563 1.314-0.563 1.791-0.023l5.857 6.957c0.668 0.766 0.102 1.946-0.887 1.947h-2.676zM25.827 25.827c2.514-2.515 4.069-5.99 4.069-9.827s-1.556-7.313-4.069-9.827c-2.515-2.514-5.99-4.069-9.827-4.069s-7.313 1.555-9.827 4.069-4.069 5.989-4.069 9.827c0 3.837 1.555 7.312 4.069 9.827 2.514 2.514 5.989 4.069 9.827 4.069s7.312-1.556 9.827-4.069z"></path>
</symbol>
<symbol id="icon-Spinner" viewBox="0 0 32 32">
<path fill="#0a0a0a" style="fill: var(--color1, #0a0a0a)" opacity="0.083334" d="M16 7.68c0.53 0 0.96 0.86 0.96 1.92s-0.43 1.92-0.96 1.92c-0.53 0-0.96-0.86-0.96-1.92s0.43-1.92 0.96-1.92z"></path>
<path fill="#0a0a0a" style="fill: var(--color1, #0a0a0a)" opacity="0.166667" d="M20.16 8.795c0.459 0.265 0.402 1.224-0.129 2.143s-1.332 1.448-1.791 1.183c-0.459-0.265-0.402-1.224 0.129-2.143s1.332-1.448 1.791-1.183z"></path>
<path fill="#0a0a0a" style="fill: var(--color1, #0a0a0a)" opacity="0.25" d="M23.205 11.84c0.265 0.459-0.264 1.261-1.183 1.791s-1.878 0.588-2.143 0.129c-0.265-0.459 0.264-1.261 1.183-1.791s1.878-0.588 2.143-0.129z"></path>
<path fill="#0a0a0a" style="fill: var(--color1, #0a0a0a)" opacity="0.333334" d="M24.32 16c0 0.53-0.86 0.96-1.92 0.96s-1.92-0.43-1.92-0.96c0-0.53 0.86-0.96 1.92-0.96s1.92 0.43 1.92 0.96z"></path>
<path fill="#0a0a0a" style="fill: var(--color1, #0a0a0a)" opacity="0.416667" d="M23.205 20.16c-0.265 0.459-1.224 0.402-2.143-0.129s-1.448-1.332-1.183-1.791c0.265-0.459 1.224-0.402 2.143 0.129s1.448 1.332 1.183 1.791z"></path>
<path fill="#0a0a0a" style="fill: var(--color1, #0a0a0a)" opacity="0.5" d="M20.16 23.205c-0.459 0.265-1.261-0.264-1.791-1.183s-0.588-1.878-0.129-2.143c0.459-0.265 1.261 0.264 1.791 1.183s0.588 1.878 0.129 2.143z"></path>
<path fill="#0a0a0a" style="fill: var(--color1, #0a0a0a)" opacity="0.583334" d="M16 24.32c-0.53 0-0.96-0.86-0.96-1.92s0.43-1.92 0.96-1.92c0.53 0 0.96 0.86 0.96 1.92s-0.43 1.92-0.96 1.92z"></path>
<path fill="#0a0a0a" style="fill: var(--color1, #0a0a0a)" opacity="0.666667" d="M11.84 23.205c-0.459-0.265-0.402-1.224 0.129-2.143s1.332-1.448 1.791-1.183c0.459 0.265 0.402 1.224-0.129 2.143s-1.332 1.448-1.791 1.183z"></path>
<path fill="#0a0a0a" style="fill: var(--color1, #0a0a0a)" opacity="0.75" d="M8.795 20.16c-0.265-0.459 0.264-1.261 1.183-1.791s1.878-0.588 2.143-0.129c0.265 0.459-0.264 1.261-1.183 1.791s-1.878 0.588-2.143 0.129z"></path>
<path fill="#0a0a0a" style="fill: var(--color1, #0a0a0a)" opacity="0.833334" d="M7.68 16c0-0.53 0.86-0.96 1.92-0.96s1.92 0.43 1.92 0.96c0 0.53-0.86 0.96-1.92 0.96s-1.92-0.43-1.92-0.96z"></path>
<path fill="#0a0a0a" style="fill: var(--color1, #0a0a0a)" opacity="0.916667" d="M8.795 11.84c0.265-0.459 1.224-0.402 2.143 0.129s1.448 1.332 1.183 1.791c-0.265 0.459-1.224 0.402-2.143-0.129s-1.448-1.332-1.183-1.791z"></path>
<path fill="#0a0a0a" style="fill: var(--color1, #0a0a0a)" d="M11.84 8.795c0.459-0.265 1.261 0.264 1.791 1.183s0.588 1.878 0.129 2.143c-0.459 0.265-1.261-0.264-1.791-1.183s-0.588-1.878-0.129-2.143z"></path>
</symbol>
</defs>
</svg>
